<svg width="50" height="50" viewBox="0 0 50 50" fill="none" xmlns="http://www.w3.org/2000/svg">
<path d="M16.6634 5C10.2317 5 5 10.2366 5 16.6699V33.3366C5 39.7683 10.2366 45 16.6699 45H33.3366C39.7683 45 45 39.7634 45 33.3301V16.6634C45 10.2317 39.7634 5 33.3301 5H16.6634ZM36.6667 11.6667C37.5867 11.6667 38.3333 12.4133 38.3333 13.3333C38.3333 14.2533 37.5867 15 36.6667 15C35.7467 15 35 14.2533 35 13.3333C35 12.4133 35.7467 11.6667 36.6667 11.6667ZM25 15C30.515 15 35 19.485 35 25C35 30.515 30.515 35 25 35C19.485 35 15 30.515 15 25C15 19.485 19.485 15 25 15ZM25 18.3333C23.2319 18.3333 21.5362 19.0357 20.286 20.286C19.0357 21.5362 18.3333 23.2319 18.3333 25C18.3333 26.7681 19.0357 28.4638 20.286 29.714C21.5362 30.9643 23.2319 31.6667 25 31.6667C26.7681 31.6667 28.4638 30.9643 29.714 29.714C30.9643 28.4638 31.6667 26.7681 31.6667 25C31.6667 23.2319 30.9643 21.5362 29.714 20.286C28.4638 19.0357 26.7681 18.3333 25 18.3333Z" fill="black"/>
</svg>
