<svg width="50" height="50" viewBox="0 0 50 50" fill="none" xmlns="http://www.w3.org/2000/svg">
<path d="M44.8604 14.8158C44.8921 15.26 44.8921 15.7042 44.8921 16.1483C44.8921 29.6952 34.5812 45.3044 15.736 45.3044C9.93018 45.3044 4.53682 43.6229 0 40.7042C0.824902 40.7993 1.61797 40.8311 2.47461 40.8311C7.26514 40.8311 11.6751 39.2131 15.1967 36.4529C10.6916 36.3577 6.91621 33.4072 5.61543 29.3463C6.25 29.4414 6.88447 29.5049 7.55078 29.5049C8.4708 29.5049 9.39092 29.3779 10.2475 29.156C5.55205 28.2041 2.03037 24.0798 2.03037 19.0988V18.972C3.39453 19.7334 4.98096 20.2093 6.6623 20.2727C3.90215 18.4325 2.09385 15.2917 2.09385 11.7384C2.09385 9.83486 2.60137 8.08994 3.48975 6.56709C8.53418 12.7854 16.1167 16.8462 24.6191 17.2904C24.4605 16.529 24.3653 15.7359 24.3653 14.9428C24.3653 9.29551 28.9339 4.69531 34.6128 4.69531C37.5633 4.69531 40.2282 5.93262 42.1001 7.93135C44.416 7.48721 46.6368 6.63057 48.6039 5.45674C47.8424 7.83623 46.2244 9.83496 44.0988 11.1039C46.161 10.8819 48.1598 10.3107 49.9998 9.51768C48.6041 11.548 46.8591 13.3563 44.8604 14.8158Z" fill="black"/>
</svg>
