<svg width="63" height="50" viewBox="0 0 63 50" fill="none" xmlns="http://www.w3.org/2000/svg">
<path d="M51.2237 6.81998C51.2078 6.78905 51.1813 6.76482 51.1491 6.75162C47.4261 5.04348 43.4973 3.82544 39.461 3.12799C39.4243 3.12117 39.3865 3.12609 39.3527 3.14204C39.319 3.158 39.2912 3.18418 39.2732 3.21685C38.7382 4.18784 38.2526 5.1852 37.8181 6.20514C33.4672 5.54467 29.0415 5.54467 24.6906 6.20514C24.2533 5.18261 23.7599 4.185 23.2126 3.21685C23.1938 3.18489 23.1659 3.15931 23.1323 3.14346C23.0988 3.12761 23.0613 3.12222 23.0247 3.12799C18.988 3.82398 15.0589 5.04211 11.3364 6.75172C11.3045 6.76523 11.2777 6.78829 11.2595 6.81773C3.81522 17.9347 1.77596 28.7784 2.77635 39.4878C2.77917 39.514 2.78723 39.5394 2.80007 39.5625C2.8129 39.5855 2.83024 39.6058 2.85106 39.622C7.18577 42.8316 12.0342 45.2814 17.1894 46.867C17.2257 46.8779 17.2645 46.8775 17.3005 46.8656C17.3365 46.8538 17.3681 46.8313 17.3909 46.801C18.4981 45.2945 19.4792 43.6992 20.3242 42.0313C20.3358 42.0084 20.3424 41.9833 20.3437 41.9577C20.3449 41.9321 20.3406 41.9065 20.3312 41.8826C20.3218 41.8587 20.3075 41.8371 20.2891 41.8192C20.2707 41.8012 20.2488 41.7874 20.2247 41.7786C18.6776 41.1866 17.1798 40.473 15.7454 39.6445C15.7193 39.6292 15.6975 39.6077 15.6817 39.5819C15.6659 39.5561 15.6567 39.5268 15.6549 39.4967C15.6531 39.4665 15.6588 39.4364 15.6714 39.4089C15.6841 39.3814 15.7033 39.3575 15.7273 39.3392C16.0283 39.1137 16.3295 38.8792 16.6169 38.6422C16.6424 38.6212 16.6733 38.6077 16.7061 38.6033C16.7389 38.5989 16.7722 38.6037 16.8024 38.6172C26.1998 42.906 36.3737 42.906 45.6598 38.6172C45.6901 38.6029 45.7238 38.5974 45.7571 38.6014C45.7904 38.6054 45.8218 38.6188 45.8477 38.64C46.1352 38.8769 46.4363 39.1137 46.7395 39.3392C46.7637 39.3573 46.7831 39.3811 46.7959 39.4084C46.8088 39.4358 46.8146 39.4659 46.8131 39.4961C46.8115 39.5263 46.8025 39.5556 46.787 39.5815C46.7714 39.6073 46.7497 39.629 46.7237 39.6445C45.2926 40.48 43.7934 41.1931 42.2423 41.7763C42.2182 41.7855 42.1963 41.7996 42.1781 41.8178C42.1598 41.8361 42.1456 41.8579 42.1364 41.882C42.1272 41.906 42.1231 41.9318 42.1246 41.9575C42.126 41.9832 42.1328 42.0084 42.1446 42.0313C43.0037 43.6899 43.9834 45.2832 45.0757 46.7984C45.0978 46.8295 45.1292 46.8528 45.1654 46.8651C45.2015 46.8773 45.2406 46.8779 45.2771 46.8668C50.4416 45.2865 55.2985 42.8364 59.6387 39.622C59.6598 39.6066 59.6774 39.5869 59.6903 39.5641C59.7032 39.5413 59.711 39.5161 59.7134 39.49C60.911 27.1088 57.7083 16.3541 51.2237 6.81998ZM21.7276 32.9669C18.8983 32.9669 16.5671 30.3705 16.5671 27.1818C16.5671 23.9931 18.8531 21.3965 21.7276 21.3965C24.6246 21.3965 26.9333 24.0157 26.8881 27.1816C26.8881 30.3705 24.6019 32.9669 21.7276 32.9669ZM40.8077 32.9669C37.9785 32.9669 35.6473 30.3705 35.6473 27.1818C35.6473 23.9931 37.9333 21.3965 40.8077 21.3965C43.7049 21.3965 46.0135 24.0157 45.9682 27.1816C45.9682 30.3705 43.7049 32.9669 40.8077 32.9669Z" fill="black"/>
</svg>
