<svg width="500" height="500" viewBox="0 0 500 500" fill="none" xmlns="http://www.w3.org/2000/svg">
<rect width="500" height="500" rx="250" fill="white"/>
<path d="M176.9 257.801C175.961 266.24 173.058 273.657 168.192 280.051C163.326 286.36 156.923 291.262 148.983 294.757C141.129 298.252 132.079 300 121.834 300C110.65 300 100.875 297.911 92.5084 293.734C84.1418 289.557 77.6108 283.717 72.9152 276.215C68.3051 268.713 66 259.974 66 250C66 240.026 68.3051 231.287 72.9152 223.785C77.6108 216.283 84.1418 210.443 92.5084 206.266C100.875 202.089 110.65 200 121.834 200C132.079 200 141.129 201.748 148.983 205.243C156.923 208.738 163.326 213.683 168.192 220.077C173.058 226.385 175.961 233.76 176.9 242.199H150.264C149.41 238.107 147.745 234.655 145.269 231.841C142.793 228.943 139.549 226.726 135.537 225.192C131.609 223.657 127.042 222.89 121.834 222.89C115.858 222.89 110.693 223.998 106.339 226.215C101.985 228.346 98.6553 231.458 96.3502 235.55C94.0452 239.557 92.8926 244.373 92.8926 250C92.8926 255.627 94.0452 260.486 96.3502 264.578C98.6553 268.585 101.985 271.697 106.339 273.913C110.693 276.044 115.858 277.11 121.834 277.11C127.042 277.11 131.609 276.385 135.537 274.936C139.549 273.487 142.793 271.313 145.269 268.414C147.745 265.516 149.41 261.978 150.264 257.801H176.9Z" fill="black"/>
<path d="M203.476 279.54V258.184H269.684V279.54H203.476ZM254.572 202.046L298.241 297.954H269.94L233.314 213.299H240.998L204.245 297.954H175.944L219.612 202.046H254.572Z" fill="black"/>
<path d="M333.846 202.046V286.189L321.936 274.425H393.778V297.954H307.337V202.046H333.846Z" fill="black"/>
<path d="M409.59 274.359H433.094V297.864H409.59V274.359Z" fill="#FFCD00"/>
</svg>
